<?xml version="1.0" standalone="no"?>
<!DOCTYPE svg PUBLIC "-//W3C//DTD SVG 20010904//EN"
 "http://www.w3.org/TR/2001/REC-SVG-20010904/DTD/svg10.dtd">
<svg version="1.0" xmlns="http://www.w3.org/2000/svg"
 width="488.000000pt" height="488.000000pt" viewBox="0 0 488.000000 488.000000"
 preserveAspectRatio="xMidYMid meet">
<metadata>
Created by potrace 1.16, written by Peter Selinger 2001-2019
</metadata>
<g transform="translate(0.000000,488.000000) scale(0.100000,-0.100000)"
fill="#000000" stroke="none">
<path d="M1538 4159 c-51 -27 -75 -78 -90 -193 -9 -73 -9 -114 0 -185 40 -301
219 -526 632 -796 149 -98 242 -195 308 -320 l52 -100 -6 60 c-14 131 -76 271
-167 380 -21 25 -103 97 -182 160 -215 172 -312 291 -357 438 -28 94 -22 229
16 341 22 66 24 85 16 116 -28 103 -130 148 -222 99z"/>
<path d="M2461 3787 c-5 -13 -12 -49 -16 -80 l-7 -56 -63 6 c-70 6 -115 -5
-165 -42 -26 -19 -47 -25 -84 -25 -28 0 -56 -4 -63 -8 -23 -14 -53 -112 -53
-172 0 -103 27 -143 190 -279 173 -146 226 -212 260 -328 7 -24 16 -43 20 -43
15 0 80 81 105 131 15 28 35 83 45 122 11 40 33 108 51 152 31 77 32 86 35
255 5 251 5 251 -7 266 -19 23 -45 16 -99 -27 -29 -23 -55 -37 -60 -33 -4 5
-13 38 -19 74 -7 36 -14 75 -17 88 -6 30 -42 29 -53 -1z"/>
<path d="M2089 2758 c-20 -71 -24 -105 -24 -243 0 -180 14 -264 72 -429 61
-175 152 -333 268 -465 63 -72 106 -151 125 -231 l14 -55 8 39 c17 81 -20 188
-108 312 -57 80 -137 248 -164 344 -41 149 -65 418 -44 497 6 22 8 21 59 -20
29 -23 94 -71 144 -106 150 -105 227 -202 257 -324 15 -58 15 -76 4 -135 -27
-143 -26 -158 13 -197 46 -46 101 -49 148 -7 26 24 32 38 42 103 20 141 -33
312 -137 441 -59 74 -198 181 -338 260 -131 74 -220 153 -268 237 -19 33 -38
61 -41 61 -4 0 -17 -37 -30 -82z"/>
<path d="M2577 2618 c321 -220 441 -408 431 -677 -3 -88 -8 -115 -29 -161 -24
-51 -91 -130 -111 -130 -5 0 -16 -15 -25 -34 -13 -29 -14 -40 -4 -64 13 -30
47 -52 82 -52 30 0 132 103 167 168 43 81 62 165 62 273 0 330 -191 579 -535
701 -131 47 -136 43 -38 -24z"/>
<path d="M3227 2110 c-3 -14 -8 -75 -11 -135 -10 -201 -56 -387 -131 -522 -79
-141 -255 -278 -404 -313 -76 -18 -176 -8 -246 24 -69 31 -94 33 -128 6 -34
-27 -43 -70 -22 -113 31 -66 196 -116 343 -103 157 13 308 90 442 225 98 99
145 179 185 316 46 158 45 383 -4 570 -15 56 -19 65 -24 45z"/>
<path d="M2113 1998 c27 -76 39 -202 34 -348 -6 -166 -32 -298 -98 -497 -32
-98 -32 -121 4 -160 15 -17 32 -23 62 -23 69 0 89 34 120 200 36 195 29 396
-20 584 -24 93 -79 233 -97 251 -8 7 -9 5 -5 -7z"/>
<path d="M3346 1662 c-16 -158 -66 -291 -180 -479 -64 -106 -71 -143 -30 -169
43 -29 72 -10 116 76 93 181 140 443 109 605 -7 38 -7 37 -15 -33z"/>
</g>
</svg>
